# xmcd CD database file
#
# Track frame offsets:
#	182
#	26370
#	45942
#	71100
#	90087
#	108760
#	140440
#	166372
#	191642
#	210865
#	234650
#	272655
#	300432
#
# Disc length: 4315 seconds
#
# Revision: 0
# Processed by: cddbd v1.4PL0 Copyright (c) Steve Scherf et al.
# Submitted via: CDex 1.50
#
DISCID=9b10d90d
DTITLE=Ray Barretto - Beyond The Barrio
DYEAR=1995
DGENRE=Salsa
TTITLE0=Nadie Se Salva La Rumba
TTITLE1=Tu Propio Dolor
TTITLE2=Lucretia The Cat
TTITLE3=Aguadilla
TTITLE4=Vive Y Vacila
TTITLE5=Canto Abacua
TTITLE6=Cancion Para El Niño
TTITLE7=Lo Tuyo Lo Mio
TTITLE8=Aguardiente De Caña
TTITLE9=Ya No Puede Ser
TTITLE10=Tin Tin Deo
TTITLE11=Prestame Tu Mujer
TTITLE12=Eras
EXTD=YEAR: 1995
EXTT0=
EXTT1=
EXTT2=
EXTT3=
EXTT4=
EXTT5=
EXTT6=
EXTT7=
EXTT8=
EXTT9=
EXTT10=
EXTT11=
EXTT12=
PLAYORDER=
